<svg viewBox="0 0 20 22" xmlns="http://www.w3.org/2000/svg" xmlns:xlink="http://www.w3.org/1999/xlink" width="20.000000" height="22.000000" fill="none" customFrame="#000000">
	<path id="↳ Icon Color" d="M13 0C13.5523 0 14 0.447715 14 1L14 21C14 21.5523 13.5523 22 13 22C12.4477 22 12 21.5523 12 21L12 1C12 0.447715 12.4477 0 13 0ZM7 5C7.55228 5 8 5.44772 8 6L8 16C8 16.5523 7.55228 17 7 17C6.44772 17 6 16.5523 6 16L6 6C6 5.44772 6.44772 5 7 5ZM19 5C19.5523 5 20 5.44772 20 6L20 16C20 16.5523 19.5523 17 19 17C18.4477 17 18 16.5523 18 16L18 6C18 5.44772 18.4477 5 19 5ZM1 7C1.55228 7 2 7.44772 2 8L2 14C2 14.5523 1.55229 15 1 15C0.447716 15 0 14.5523 0 14L0 8C0 7.44772 0.447715 7 1 7Z" fill="rgb(0,0,0)" fill-rule="evenodd" />
</svg>
